<svg width="473" height="206" viewBox="0 0 473 206" fill="none" xmlns="http://www.w3.org/2000/svg">
<path d="M75.8119 71.0352L70.5457 29.5889L50.907 85.177H42.5688L22.2718 29.5889L16.7861 71.0352C16.713 71.3978 16.6399 71.9055 16.5667 72.5582C16.5667 73.1384 16.5667 73.501 16.5667 73.646C16.5667 76.3293 17.2616 78.1061 18.6513 78.9764C20.1141 79.7741 22.9301 80.318 27.0992 80.6081V85.177H0V80.6081C3.14512 80.4631 5.41253 79.9554 6.80223 79.0852C8.19193 78.2149 9.03307 76.5469 9.32563 74.0811L16.2376 21.3215C16.2376 18.4206 15.5793 16.4262 14.2627 15.3384C12.9462 14.178 10.4959 13.5253 6.91194 13.3803V8.81142H37.4123C37.4854 10.0443 37.6683 11.2409 37.9608 12.4012C38.3265 13.4891 38.7288 14.6132 39.1677 15.7735L54.0887 57.3286L68.2417 15.7735C68.6806 14.3956 69.0828 13.199 69.4486 12.1837C69.8143 11.1684 70.0337 10.0443 70.1068 8.81142H99.9489V13.3803C96.3649 13.5253 93.9146 14.178 92.5981 15.3384C91.3547 16.4262 90.7329 18.4206 90.7329 21.3215L97.6449 74.0811C98.0106 76.6919 98.8517 78.3962 100.168 79.1939C101.558 79.9917 103.789 80.4631 106.861 80.6081V85.177H65.4989V80.6081C69.3754 80.3906 72.0817 79.8466 73.6177 78.9764C75.2268 78.1061 76.0314 76.3293 76.0314 73.646C76.0314 73.501 75.9948 73.1384 75.9216 72.5582C75.9216 71.9055 75.8851 71.3978 75.8119 71.0352Z" fill="#1A1A1A"/>
<path d="M136.203 75.4953C137.081 75.4953 137.885 75.3865 138.617 75.169C139.348 74.8789 140.153 74.48 141.031 73.9724V53.8475L134.996 56.132C133.095 56.8572 131.559 57.8725 130.388 59.1779C129.218 60.4833 128.633 62.6952 128.633 65.8137C128.633 68.5695 129.218 70.8902 130.388 72.7757C131.559 74.5888 133.497 75.4953 136.203 75.4953ZM160.998 44.3834V73.2109C160.998 74.5163 161.145 75.6766 161.437 76.6919C161.803 77.6347 162.644 78.1061 163.961 78.1061C164.692 78.1061 165.387 78.0336 166.045 77.8885C166.777 77.7435 167.325 77.5985 167.691 77.4534L168.459 80.3906C166.63 82.2036 164.509 83.654 162.095 84.7419C159.755 85.7572 157.049 86.2648 153.977 86.2648C150.832 86.2648 148.125 85.4671 145.858 83.8716C143.664 82.2761 142.164 80.0279 141.36 77.1271C139.751 79.3753 137.593 81.4059 134.887 83.2189C132.18 85.032 128.816 85.9385 124.793 85.9385C120.185 85.9385 116.418 84.6693 113.492 82.1311C110.567 79.5928 109.104 76.003 109.104 71.3616C109.104 66.6476 110.53 63.1303 113.383 60.8096C116.308 58.4889 119.71 56.6396 123.586 55.2617L141.031 49.1699V38.074C141.031 35.6083 140.592 33.6139 139.714 32.091C138.909 30.4955 137.447 29.6977 135.325 29.6977C133.204 29.6977 131.668 30.4955 130.717 32.091C129.84 33.6864 129.401 35.7533 129.401 38.2916C129.401 39.5244 129.474 40.7936 129.62 42.099C129.84 43.3319 130.096 44.601 130.388 45.9064L118.21 47.5381C116.601 47.0305 115.284 46.1239 114.26 44.8186C113.31 43.5132 112.834 41.8814 112.834 39.9233C112.834 34.9918 115.102 31.3657 119.636 29.045C124.244 26.6518 129.84 25.4552 136.423 25.4552C144.029 25.4552 150.027 26.8694 154.416 29.6977C158.804 32.4536 160.998 37.3488 160.998 44.3834Z" fill="#1A1A1A"/>
<path d="M195.197 11.7486V26.543H208.034V32.4173H195.197V68.4244C195.197 71.0352 195.709 72.9571 196.733 74.1899C197.83 75.3503 199.403 75.9305 201.451 75.9305C202.841 75.9305 204.157 75.7129 205.401 75.2778C206.717 74.7701 208.034 74.0811 209.35 73.2109L210.996 75.6041C208.948 78.9401 206.351 81.5509 203.206 83.4365C200.061 85.322 196.294 86.2648 191.906 86.2648C186.859 86.2648 182.726 84.8869 179.508 82.1311C176.363 79.3753 174.79 74.8064 174.79 68.4244V32.4173H168.537V28.8275C172.925 27.232 177.021 24.9113 180.825 21.8654C184.701 18.8194 188.066 15.4472 190.918 11.7486H195.197Z" fill="#1A1A1A"/>
<path d="M238.054 11.7486V26.543H250.89V32.4173H238.054V68.4244C238.054 71.0352 238.566 72.9571 239.59 74.1899C240.687 75.3503 242.26 75.9305 244.308 75.9305C245.697 75.9305 247.014 75.7129 248.257 75.2778C249.574 74.7701 250.89 74.0811 252.207 73.2109L253.853 75.6041C251.805 78.9401 249.208 81.5509 246.063 83.4365C242.918 85.322 239.151 86.2648 234.763 86.2648C229.716 86.2648 225.583 84.8869 222.365 82.1311C219.22 79.3753 217.647 74.8064 217.647 68.4244V32.4173H211.394V28.8275C215.782 27.232 219.878 24.9113 223.682 21.8654C227.558 18.8194 230.923 15.4472 233.775 11.7486H238.054Z" fill="#1A1A1A"/>
<path d="M261.93 76.6919V11.3134L255.896 8.2675V5.00401L278.826 0H282.227V36.3335C284.275 33.7227 286.945 31.257 290.236 28.9363C293.528 26.6155 297.66 25.4552 302.634 25.4552C307.9 25.4552 311.96 26.9782 314.812 30.0241C317.738 32.9975 319.201 37.4213 319.201 43.2956V76.6919C319.201 78.4325 319.676 79.5566 320.627 80.0642C321.578 80.4993 323.15 80.7894 325.345 80.9345V85.177H293.089V80.9345C295.283 80.7894 296.783 80.4993 297.587 80.0642C298.465 79.5566 298.904 78.4325 298.904 76.6919V44.9273C298.904 42.5341 298.392 40.6848 297.368 39.3794C296.344 38.0015 294.405 37.3125 291.553 37.3125C289.798 37.3125 288.152 37.5301 286.616 37.9652C285.08 38.4004 283.617 38.9805 282.227 39.7058V76.6919C282.227 78.4325 282.63 79.5566 283.434 80.0642C284.312 80.4993 285.848 80.7894 288.042 80.9345V85.177H255.786V80.9345C257.981 80.7894 259.553 80.4993 260.504 80.0642C261.455 79.5566 261.93 78.4325 261.93 76.6919Z" fill="#1A1A1A"/>
<path d="M355.092 25.4552V76.6919C355.092 78.4325 355.567 79.5566 356.518 80.0642C357.469 80.4993 359.041 80.7894 361.236 80.9345V85.177H328.76V80.9345C330.955 80.7894 332.527 80.4993 333.478 80.0642C334.429 79.5566 334.904 78.4325 334.904 76.6919V38.5091L328.87 34.8105V31.7646L351.69 25.4552H355.092ZM345.217 20.6687C341.853 20.6687 339.22 19.6534 337.318 17.6228C335.416 15.5922 334.465 13.2353 334.465 10.5519C334.465 7.86863 335.416 5.54793 337.318 3.58983C339.22 1.55922 341.853 0.543911 345.217 0.543911C348.509 0.543911 351.105 1.55922 353.007 3.58983C354.982 5.54793 355.969 7.86863 355.969 10.5519C355.969 13.2353 354.982 15.5922 353.007 17.6228C351.105 19.6534 348.509 20.6687 345.217 20.6687Z" fill="#1A1A1A"/>
<path d="M391.844 75.4953C392.722 75.4953 393.526 75.3865 394.257 75.169C394.989 74.8789 395.793 74.48 396.671 73.9724V53.8475L390.637 56.132C388.735 56.8572 387.199 57.8725 386.029 59.1779C384.859 60.4833 384.274 62.6952 384.274 65.8137C384.274 68.5695 384.859 70.8902 386.029 72.7757C387.199 74.5888 389.138 75.4953 391.844 75.4953ZM416.639 44.3834V73.2109C416.639 74.5163 416.785 75.6766 417.078 76.6919C417.444 77.6347 418.285 78.1061 419.601 78.1061C420.333 78.1061 421.028 78.0336 421.686 77.8885C422.417 77.7435 422.966 77.5985 423.332 77.4534L424.1 80.3906C422.271 82.2036 420.15 83.654 417.736 84.7419C415.396 85.7572 412.689 86.2648 409.617 86.2648C406.472 86.2648 403.766 85.4671 401.499 83.8716C399.304 82.2761 397.805 80.0279 397 77.1271C395.391 79.3753 393.233 81.4059 390.527 83.2189C387.821 85.032 384.456 85.9385 380.434 85.9385C375.826 85.9385 372.059 84.6693 369.133 82.1311C366.207 79.5928 364.745 76.003 364.745 71.3616C364.745 66.6476 366.171 63.1303 369.023 60.8096C371.949 58.4889 375.35 56.6396 379.227 55.2617L396.671 49.1699V38.074C396.671 35.6083 396.232 33.6139 395.355 32.091C394.55 30.4955 393.087 29.6977 390.966 29.6977C388.845 29.6977 387.309 30.4955 386.358 32.091C385.48 33.6864 385.042 35.7533 385.042 38.2916C385.042 39.5244 385.115 40.7936 385.261 42.099C385.48 43.3319 385.736 44.601 386.029 45.9064L373.851 47.5381C372.242 47.0305 370.925 46.1239 369.901 44.8186C368.95 43.5132 368.475 41.8814 368.475 39.9233C368.475 34.9918 370.742 31.3657 375.277 29.045C379.885 26.6518 385.48 25.4552 392.063 25.4552C399.67 25.4552 405.668 26.8694 410.056 29.6977C414.445 32.4536 416.639 37.3488 416.639 44.3834Z" fill="#1A1A1A"/>
<path d="M448.644 86.2648C444.109 86.2648 440.086 85.7572 436.575 84.7419C433.064 83.7266 430.139 82.3849 427.798 80.7169L427.14 66.0312H432.187C433.284 70.455 435.222 74.1899 438.001 77.2358C440.854 80.2092 444.401 81.696 448.644 81.696C451.204 81.696 453.398 81.0795 455.226 79.8466C457.055 78.6138 457.969 76.7645 457.969 74.2987C457.969 71.5429 456.945 69.5123 454.897 68.2069C452.849 66.9015 449.96 65.6686 446.23 64.5083C440.086 62.6227 435.368 60.1932 432.077 57.2198C428.785 54.2464 427.14 50.0039 427.14 44.4922C427.14 38.4004 429.261 33.7227 433.503 30.4592C437.745 27.1232 443.158 25.4552 449.741 25.4552C453.471 25.4552 456.945 25.9266 460.164 26.8694C463.455 27.7396 466.271 28.9362 468.611 30.4592V43.5132H463.894C463.235 39.9596 461.699 36.8411 459.286 34.1578C456.945 31.402 453.873 30.0241 450.07 30.0241C447.729 30.0241 445.828 30.6405 444.365 31.8734C442.902 33.1063 442.171 34.738 442.171 36.7686C442.171 39.0168 443.012 40.7573 444.694 41.9902C446.449 43.2231 449.119 44.4559 452.703 45.6888C459.286 47.8645 464.296 50.4027 467.734 53.3036C471.245 56.132 473 60.4833 473 66.3576C473 72.667 470.769 77.5622 466.307 81.0433C461.919 84.5243 456.031 86.2648 448.644 86.2648Z" fill="#1A1A1A"/>
<path d="M36.8637 168.47H32.0363V192.402C32.0363 195.303 32.5849 197.261 33.682 198.276C34.8523 199.292 36.8637 199.799 39.7162 199.799H40.5939C44.3242 199.799 47.3962 198.53 49.8099 195.992C52.2236 193.381 53.4304 189.356 53.4304 183.917C53.4304 178.986 52.0407 175.178 49.2613 172.495C46.4819 169.812 42.3494 168.47 36.8637 168.47ZM34.6694 133.659H32.0363V162.596H34.7791C39.3871 162.596 42.8979 161.363 45.3116 158.897C47.7253 156.359 48.9322 152.66 48.9322 147.801C48.9322 143.015 47.6522 139.461 45.0922 137.14C42.5322 134.82 39.058 133.659 34.6694 133.659ZM43.4465 204.912H2.52341V200.343C6.18052 199.981 8.41136 199.4 9.21592 198.603C10.0936 197.732 10.5325 195.883 10.5325 193.055V140.404C10.5325 137.576 10.0936 135.762 9.21592 134.965C8.41136 134.094 6.18052 133.478 2.52341 133.115V128.547H42.3494C50.8339 128.547 57.4532 130.142 62.2075 133.333C66.9617 136.524 69.3388 141.274 69.3388 147.584C69.3388 153.023 67.2177 157.193 62.9755 160.094C58.7332 162.994 53.979 164.699 48.7127 165.206C55.9538 165.424 62.0246 167.165 66.9251 170.428C71.8257 173.691 74.2759 178.297 74.2759 184.243C74.2759 191.206 71.6428 196.391 66.3766 199.799C61.1103 203.208 53.467 204.912 43.4465 204.912Z" fill="#1A1A1A"/>
<path d="M105.237 166.077V194.795C105.237 197.116 105.895 198.603 107.211 199.255C108.601 199.836 110.868 200.307 114.014 200.67V204.912H78.9053V200.67C81.0996 200.525 82.6721 200.235 83.623 199.799C84.5739 199.292 85.0493 198.168 85.0493 196.427V158.244L79.015 154.546V151.5L101.945 145.19H105.675L105.237 161.943C107.504 155.633 109.735 151.282 111.929 148.889C114.196 146.423 117.049 145.19 120.487 145.19C121.73 145.19 122.827 145.372 123.778 145.734C124.729 146.097 125.46 146.532 125.972 147.04V162.16H123.339C119.902 162.16 116.647 162.378 113.575 162.813C110.503 163.176 107.723 164.264 105.237 166.077Z" fill="#1A1A1A"/>
<path d="M189.829 159.115V192.402C189.829 194.215 190.012 195.557 190.378 196.427C190.743 197.297 191.804 197.769 193.559 197.841L196.192 197.95V202.193L173.043 206H169.203L169.532 195.448C167.557 197.914 164.997 200.307 161.852 202.628C158.78 204.876 154.83 206 150.003 206C145.176 206 141.189 204.513 138.044 201.54C134.972 198.566 133.436 193.961 133.436 187.724V161.073C133.436 159.477 133.144 158.136 132.559 157.048C132.047 155.96 130.913 155.198 129.157 154.763L127.512 154.219V150.303L150.661 145.299H154.282L153.624 159.115V185.766C153.624 188.522 154.209 190.662 155.379 192.185C156.549 193.708 158.451 194.469 161.084 194.469C162.693 194.469 164.119 194.288 165.363 193.925C166.679 193.49 168.069 192.946 169.532 192.293V161.073C169.532 159.477 169.239 158.136 168.654 157.048C168.142 155.96 167.045 155.198 165.363 154.763L163.717 154.219V150.303L186.757 145.299H190.378L189.829 159.115Z" fill="#1A1A1A"/>
<path d="M243.2 196.427V164.662C243.2 162.269 242.688 160.42 241.664 159.115C240.64 157.737 238.702 157.048 235.849 157.048C234.094 157.048 232.412 157.265 230.803 157.7C229.267 158.136 227.804 158.716 226.414 159.441V196.427C226.414 198.168 226.853 199.292 227.731 199.799C228.608 200.235 230.144 200.525 232.339 200.67V204.912H200.083V200.67C202.277 200.525 203.85 200.235 204.801 199.799C205.751 199.292 206.227 198.168 206.227 196.427V158.244L200.193 154.546V151.5L223.123 145.19H226.853L226.414 156.069C228.462 153.458 231.132 150.992 234.423 148.671C237.788 146.351 241.92 145.19 246.821 145.19C252.087 145.19 256.183 146.677 259.109 149.65C262.034 152.624 263.497 157.084 263.497 163.031V196.427C263.497 198.168 263.973 199.292 264.923 199.799C265.874 200.235 267.447 200.525 269.641 200.67V204.912H237.385V200.67C239.58 200.525 241.079 200.235 241.884 199.799C242.761 199.292 243.2 198.168 243.2 196.427Z" fill="#1A1A1A"/>
<path d="M295.431 206C290.896 206 286.873 205.492 283.362 204.477C279.851 203.462 276.926 202.12 274.585 200.452L273.927 185.766H278.974C280.071 190.19 282.009 193.925 284.788 196.971C287.641 199.944 291.188 201.431 295.431 201.431C297.991 201.431 300.185 200.815 302.013 199.582C303.842 198.349 304.756 196.5 304.756 194.034C304.756 191.278 303.732 189.247 301.684 187.942C299.636 186.637 296.747 185.404 293.017 184.243C286.873 182.358 282.155 179.928 278.864 176.955C275.573 173.982 273.927 169.739 273.927 164.227C273.927 158.136 276.048 153.458 280.29 150.194C284.532 146.858 289.945 145.19 296.528 145.19C300.258 145.19 303.732 145.662 306.951 146.605C310.242 147.475 313.058 148.671 315.398 150.194V163.248H310.681C310.022 159.695 308.487 156.576 306.073 153.893C303.732 151.137 300.66 149.759 296.857 149.759C294.516 149.759 292.615 150.376 291.152 151.609C289.689 152.841 288.958 154.473 288.958 156.504C288.958 158.752 289.799 160.492 291.481 161.725C293.236 162.958 295.906 164.191 299.49 165.424C306.073 167.6 311.083 170.138 314.521 173.039C318.032 175.867 319.787 180.218 319.787 186.093C319.787 192.402 317.556 197.297 313.094 200.778C308.706 204.259 302.818 206 295.431 206Z" fill="#1A1A1A"/>
<path d="M326.102 194.795C326.102 191.459 327.199 188.74 329.394 186.637C331.588 184.534 334.258 183.482 337.403 183.482C340.548 183.482 343.218 184.534 345.412 186.637C347.606 188.74 348.703 191.459 348.703 194.795C348.703 198.131 347.606 200.851 345.412 202.954C343.218 204.985 340.548 206 337.403 206C334.258 206 331.588 204.985 329.394 202.954C327.199 200.851 326.102 198.131 326.102 194.795Z" fill="#1A1A1A"/>
</svg>
